<?xml version="1.0" encoding="utf-8"?>
<!-- Generator: Adobe Illustrator 27.7.0, SVG Export Plug-In . SVG Version: 6.00 Build 0)  -->
<svg version="1.1" id="Layer_1" xmlns="http://www.w3.org/2000/svg" xmlns:xlink="http://www.w3.org/1999/xlink" x="0px" y="0px"
	 viewBox="0 0 1242.32 931.74" style="enable-background:new 0 0 1242.32 931.74;" xml:space="preserve">
<style type="text/css">
	.st0{clip-path:url(#SVGID_00000091012460147232953880000011124932385524773783_);fill:#666666;}
	.st1{clip-path:url(#SVGID_00000091012460147232953880000011124932385524773783_);fill:#2444C9;}
	.st2{fill:#7F7F7F;}
	.st3{font-family:'ArialMT';}
	.st4{font-size:44.5719px;}
	.st5{letter-spacing:-1.62;}
</style>
<g>
	<defs>
		<rect id="SVGID_1_" x="-378.84" y="-284.13" width="2000" height="1500"/>
	</defs>
	<clipPath id="SVGID_00000094575785523809399490000004763669837444691597_">
		<use xlink:href="#SVGID_1_"  style="overflow:visible;"/>
	</clipPath>
	<path style="clip-path:url(#SVGID_00000094575785523809399490000004763669837444691597_);fill:#666666;" d="M271.09,715.11
		c-1.39,0-2.08-0.56-2.08-1.68V512.31c0-1.12,0.69-1.68,2.08-1.68h37.68c1.39,0,2.08,0.56,2.08,1.68v201.11
		c0,1.12-0.69,1.68-2.08,1.68H271.09z"/>
	<path style="clip-path:url(#SVGID_00000094575785523809399490000004763669837444691597_);fill:#666666;" d="M345.95,715.11
		c-1.39,0-2.08-0.56-2.08-1.68v-142.3c0-1.12,0.7-1.68,2.08-1.68h35.42c1.39,0,2.08,0.56,2.08,1.68v11.51
		c11.11-9.82,25.93-14.74,44.45-14.74c7.18,0,14.12,1.08,20.84,3.23c6.71,2.15,13.43,5.38,20.14,9.68
		c13.2,8.7,19.8,21.38,19.8,38.03v94.59c0,1.12-0.69,1.68-2.08,1.68h-35.42c-1.39,0-2.08-0.56-2.08-1.68v-84.77
		c0-9.26-3.07-16.37-9.2-21.33c-6.48-5.05-14.24-7.58-23.27-7.58c-9.72,0-17.71,2.53-23.96,7.58c-6.14,4.96-9.2,12.07-9.2,21.33
		v84.77c0,1.12-0.69,1.68-2.08,1.68H345.95z"/>
	<path style="clip-path:url(#SVGID_00000094575785523809399490000004763669837444691597_);fill:#666666;" d="M561.97,715.11
		c-0.35,0-0.72-0.12-1.13-0.35c-0.41-0.23-0.67-0.49-0.78-0.77l-64.42-142.3c-0.23-0.56-0.17-1.08,0.17-1.54
		c0.35-0.47,0.87-0.7,1.56-0.7h37.51c1.04,0,1.68,0.38,1.91,1.12l39.77,95.99c6.6-16.09,13.22-32.09,19.88-48
		c6.66-15.9,13.28-31.9,19.88-48c0.23-0.75,0.87-1.12,1.91-1.12h37.51c0.81,0,1.39,0.23,1.73,0.7c0.35,0.47,0.41,0.98,0.17,1.54
		l-64.6,142.3c-0.12,0.28-0.38,0.54-0.78,0.77c-0.41,0.23-0.78,0.35-1.13,0.35H561.97z"/>
	<path style="clip-path:url(#SVGID_00000094575785523809399490000004763669837444691597_);fill:#666666;" d="M803.7,653.08
		c0,1.12-0.69,1.68-2.08,1.68H694.13c0.35,10.29,3.99,18.1,10.94,23.44c7.64,5.61,17.31,8.42,29,8.42c13.89,0,26.28-4.4,37.16-13.19
		c0.23-0.28,0.64-0.44,1.22-0.49c0.58-0.05,1.1,0.07,1.56,0.35l25.7,17.68c0.46,0.28,0.7,0.66,0.7,1.12c0,0.47-0.17,0.89-0.52,1.26
		c-9.03,8.42-19.13,14.43-30.3,18.03c-11.17,3.6-22.83,5.4-34.99,5.4c-18.64,0-36.53-4.82-53.66-14.46
		c-17.6-9.73-26.39-29.56-26.39-59.5c0-28.25,8.05-47.81,24.14-58.66c16.44-10.85,33.28-16.28,50.53-16.28
		c19.91,0,37.27,5.57,52.09,16.7c14.93,11.23,22.4,26.2,22.4,44.91V653.08z M764.11,627.96c-0.81-9.73-4.4-17.12-10.77-22.17
		c-6.37-5.05-14.41-7.58-24.14-7.58c-10.07,0-18.35,2.62-24.83,7.86c-3.01,2.43-5.38,5.52-7.12,9.26
		c-1.74,3.74-2.78,7.95-3.13,12.63H764.11z"/>
	<path style="clip-path:url(#SVGID_00000094575785523809399490000004763669837444691597_);fill:#666666;" d="M832.71,668.93
		c0.92-0.75,1.79-0.79,2.6-0.14c15.05,11.88,33.11,17.82,54.18,17.82c9.49,0,17.48-1.45,23.96-4.35c2.78-1.4,4.95-3.13,6.51-5.19
		c1.56-2.06,2.34-4.4,2.34-7.02c0-7.39-6.6-11.51-19.8-12.35l-31.26-2.39c-7.29-0.56-14.12-1.82-20.49-3.79
		c-6.37-1.96-12.04-4.72-17.02-8.28c-9.96-7.11-14.93-17.07-14.93-29.89c0-14.97,6.54-26.34,19.62-34.1
		c12.85-7.58,28.82-11.37,47.92-11.37c7.87,0,15.14,0.47,21.79,1.4c6.65,0.94,12.85,2.25,18.58,3.93
		c5.73,1.68,11.05,3.74,15.97,6.17c4.92,2.43,9.64,5.15,14.15,8.14c0.46,0.28,0.7,0.66,0.7,1.12c0,0.47-0.17,0.89-0.52,1.26
		l-21.88,20.77c-0.81,0.66-1.74,0.75-2.78,0.28c-6.83-3.74-13.89-6.81-21.18-9.19c-7.29-2.39-15.57-3.58-24.83-3.58
		c-10.77,0-18.17,1.5-22.23,4.49c-3.94,2.9-5.9,6.55-5.9,10.95c0,2.71,1.45,5.24,4.34,7.58c2.78,2.25,8.45,3.65,17.02,4.21
		c4.86,0.28,9.75,0.56,14.67,0.84c4.92,0.28,9.75,0.56,14.5,0.84c9.03,0.47,17.04,1.94,24.05,4.42c7,2.48,12.53,5.78,16.58,9.89
		c8.22,8.42,12.33,18.39,12.33,29.89c0,14.6-7.35,25.87-22.05,33.82c-7.29,3.84-15.31,6.74-24.05,8.7
		c-8.74,1.96-18.38,2.95-28.91,2.95c-29.64,0-55.91-8.61-78.83-25.82c-1.04-0.84-1.04-1.68,0-2.53L832.71,668.93z"/>
	<path style="clip-path:url(#SVGID_00000094575785523809399490000004763669837444691597_);fill:#666666;" d="M986.92,715.25
		c-1.39,0-2.08-0.56-2.08-1.68V594.69h-15.63c-1.39,0-2.08-0.56-2.08-1.68v-21.89c0-1.12,0.69-1.68,2.08-1.68h15.63V548.1
		l35.94-31.02c0.7-0.56,1.48-0.7,2.35-0.42c0.87,0.28,1.3,0.8,1.3,1.54v51.23h23.62c1.39,0,2.08,0.56,2.08,1.68v21.89
		c0,1.12-0.69,1.68-2.08,1.68h-23.62v118.87c0,1.12-0.69,1.68-2.08,1.68H986.92z"/>
	<path style="clip-path:url(#SVGID_00000094575785523809399490000004763669837444691597_);fill:#666666;" d="M1054.7,681.7
		c0.07-5.2,0.97-9.97,2.72-14.31c1.75-4.35,4.32-8.3,7.71-11.86c6.56-7.03,14.88-10.59,24.96-10.69c9.98,0.1,18.35,3.66,25.11,10.69
		c6.66,6.99,10.07,15.72,10.23,26.18c-0.07,5.19-0.97,9.96-2.72,14.31c-1.75,4.34-4.25,8.22-7.51,11.61
		c-3.33,3.46-7.1,6.13-11.32,7.99c-4.22,1.86-8.82,2.83-13.79,2.9c-5.01-0.07-9.61-1.04-13.79-2.92c-4.19-1.88-7.91-4.54-11.17-7.97
		c-3.26-3.4-5.8-7.29-7.61-11.66C1055.7,691.59,1054.76,686.83,1054.7,681.7 M1063.35,681.7c0.03,4.23,0.68,8.03,1.95,11.41
		c1.27,3.38,3.19,6.37,5.76,8.97c2.44,2.73,5.23,4.76,8.38,6.09c3.15,1.33,6.7,2.02,10.65,2.05c3.92-0.03,7.47-0.72,10.65-2.05
		c3.18-1.33,6.02-3.36,8.53-6.09c4.94-5.16,7.45-11.96,7.51-20.38c-0.03-8.56-2.54-15.42-7.51-20.58
		c-4.98-5.3-11.37-7.96-19.18-7.99c-7.81,0.03-14.15,2.7-19.03,7.99C1065.95,666.28,1063.38,673.15,1063.35,681.7 M1076.94,702.43
		c-0.39,0-0.59-0.2-0.59-0.6v-42.31c0-0.37,0.2-0.55,0.59-0.55h15.37c9.65-0.1,14.48,4.28,14.48,13.14
		c-0.03,2.2-0.32,4.09-0.86,5.67c-0.54,1.58-1.31,2.87-2.3,3.87c-1.94,1.77-4.2,2.85-6.77,3.25c1.88,2.8,3.73,5.58,5.56,8.34
		c1.83,2.76,3.66,5.53,5.51,8.29c0.16,0.2,0.19,0.4,0.07,0.6c-0.12,0.2-0.3,0.3-0.57,0.3h-8.01c-0.16,0-0.33-0.08-0.49-0.25
		l-11.52-16.93h-3.01v16.58c0,0.4-0.18,0.6-0.54,0.6H1076.94z M1084.4,666.67v10.84h4.25c0.26,0.03,0.5,0.05,0.72,0.05h0.67
		c2.27,0,4.23-0.3,5.88-0.9c1.78-0.63,2.72-2.16,2.82-4.59c-0.13-2.2-0.95-3.66-2.47-4.4c-1.71-0.66-3.74-1-6.08-1H1084.4z"/>
	<path style="clip-path:url(#SVGID_00000094575785523809399490000004763669837444691597_);fill:#2444C9;" d="M551.91,315.26
		c-1.21,1.34-2.62,2.55-3.61,4.04c-34.63,52.38-69.22,104.78-103.83,157.18c-0.92,1.4-1.9,2.76-3.22,4.67
		c-5.55-8.24-10.85-16.06-16.11-23.91c-13.12-19.58-26.19-39.2-39.4-58.73c-1.54-2.27-1.89-3.79-0.17-6.27
		c55.82-80.58,111.56-161.22,167.23-241.9c1.67-2.42,3.39-3.26,6.24-3.25c33.14,0.09,66.28,0.12,99.42-0.04
		c3.57-0.02,5.6,1.03,7.48,4.07c33.81,54.6,69.17,108.19,105.91,160.87c0.32,0.46,0.71,0.88,1.55,1.9
		c37-54.73,73.84-109.23,110.96-164.13c0.92,1.18,1.64,1.98,2.21,2.88c16.67,26.27,33.29,52.56,50.03,78.78
		c1.33,2.08,1.01,3.47-0.21,5.29c-36.09,54-72.15,108.02-108.2,162.04c-17.59,26.36-35.21,52.71-52.7,79.14
		c-1.61,2.43-3.27,3.38-6.18,3.37c-33.99-0.1-67.99-0.09-101.98-0.01c-2.84,0.01-4.59-0.76-6.19-3.26
		c-17.26-26.9-34.22-54.01-52.13-80.47c-17.99-26.58-36.96-52.5-55.47-78.73c-0.77-1.09-1.19-2.43-1.77-3.67
		c36.45-0.01,72.9-0.01,109.35-0.01c0.11-0.48,0.22-0.96,0.33-1.44c-18.24-27.41-36.47-54.81-54.76-82.28
		c-0.57,0.52-0.83,0.68-0.98,0.9c-17.62,26.65-35.23,53.3-52.81,79.97C552.35,313.11,552.23,314.26,551.91,315.26 M772.66,314.96
		H662.51c18.91,27.11,37.23,53.39,55.88,80.13C736.68,368.09,754.64,341.56,772.66,314.96"/>
</g>
<text transform="matrix(1.2373 0 0 1 254.7628 764.7731)"><tspan x="0" y="0" class="st2 st3 st4 st5">New</tspan><tspan x="83.82" y="0" class="st2 st3 st4 st5"> I</tspan><tspan x="105.11" y="0" class="st2 st3 st4 st5">nves</tspan><tspan x="192.13" y="0" class="st2 st3 st4 st5">t</tspan><tspan x="202.77" y="0" class="st2 st3 st4 st5">men</tspan><tspan x="284.13" y="0" class="st2 st3 st4 st5">t I</tspan><tspan x="316.06" y="0" class="st2 st3 st4 st5">n</tspan><tspan x="339.07" y="0" class="st2 st3 st4 st5">t</tspan><tspan x="349.72" y="0" class="st2 st3 st4 st5">erna</tspan><tspan x="431.79" y="0" class="st2 st3 st4 st5">t</tspan><tspan x="442.44" y="0" class="st2 st3 st4 st5">ional</tspan><tspan x="527.69" y="0" class="st2 st3 st4 st5"> </tspan><tspan x="538.34" y="0" class="st2 st3 st4"> </tspan></text>
</svg>
